<?xml version="1.0" standalone="no"?>
<!DOCTYPE svg PUBLIC "-//W3C//DTD SVG 20010904//EN"
 "http://www.w3.org/TR/2001/REC-SVG-20010904/DTD/svg10.dtd">
<svg version="1.0" xmlns="http://www.w3.org/2000/svg"
 width="1200.000000pt" height="1085.000000pt" viewBox="0 0 1200.000000 1085.000000"
 preserveAspectRatio="xMidYMid meet">

<g transform="translate(0.000000,1085.000000) scale(0.100000,-0.100000)"
fill="#000000" stroke="none">
<path d="M4936 10789 c-56 -44 -76 -111 -102 -344 -26 -236 -29 -243 -194
-440 -99 -119 -110 -141 -122 -247 -14 -123 -28 -160 -98 -252 -32 -43 -116
-169 -185 -279 -210 -336 -299 -443 -531 -642 -135 -115 -417 -331 -706 -541
-205 -149 -646 -470 -746 -544 -443 -326 -792 -570 -952 -665 -30 -18 -86 -52
-125 -75 -100 -62 -399 -226 -545 -300 -168 -85 -328 -179 -425 -249 -44 -31
-92 -65 -107 -74 -32 -20 -40 -44 -9 -28 18 10 235 67 361 95 81 18 238 41
395 58 157 17 708 17 875 -1 559 -58 1064 -188 1605 -413 442 -184 1067 -538
1505 -853 91 -65 188 -134 215 -153 124 -87 327 -249 443 -354 53 -48 119 -95
186 -132 136 -74 168 -110 189 -207 16 -75 31 -494 57 -1639 6 -256 15 -634
20 -840 5 -206 12 -530 15 -720 8 -485 16 -730 25 -730 4 0 10 159 14 353 22
1142 81 3403 91 3526 6 66 38 142 72 173 10 10 67 40 126 68 85 40 128 69 214
143 184 159 540 425 773 578 398 262 732 457 1056 616 655 322 1311 516 1959
579 211 20 761 15 945 -10 192 -25 596 -106 663 -131 36 -15 13 6 -86 78 -105
75 -302 192 -477 282 -220 112 -614 347 -825 490 -192 131 -429 297 -643 450
-122 88 -308 221 -411 295 -767 548 -787 563 -1092 802 -128 99 -284 240 -355
318 -71 79 -188 239 -309 425 -65 99 -143 214 -175 255 -68 91 -88 138 -96
233 -9 95 -40 153 -160 292 -110 128 -129 169 -150 330 -36 274 -65 377 -115
419 -38 32 -64 24 -101 -31 -46 -68 -58 -137 -58 -336 0 -113 -5 -195 -12
-221 -30 -102 -203 -213 -403 -259 -178 -41 -189 -42 -455 -41 -271 0 -347 8
-500 51 -175 49 -323 145 -366 237 -22 47 -24 63 -24 226 0 191 -14 281 -50
343 -19 32 -47 57 -63 57 -2 0 -16 -9 -31 -21z"/>
</g>
</svg>
