<?xml version="1.0" standalone="no"?>
<!DOCTYPE svg PUBLIC "-//W3C//DTD SVG 20010904//EN"
 "http://www.w3.org/TR/2001/REC-SVG-20010904/DTD/svg10.dtd">
<svg version="1.0" xmlns="http://www.w3.org/2000/svg"
 width="800.000000pt" height="719.000000pt" viewBox="0 0 800.000000 719.000000"
 preserveAspectRatio="xMidYMid meet">

<g transform="translate(0.000000,719.000000) scale(0.100000,-0.100000)"
fill="#000000" stroke="none">
<path d="M3280 7098 c-28 -30 -46 -101 -60 -233 -14 -132 -29 -168 -109 -260
-71 -81 -101 -137 -101 -186 0 -60 -17 -97 -103 -227 -46 -70 -113 -172 -149
-227 -151 -233 -259 -328 -963 -838 -93 -68 -262 -191 -375 -273 -438 -321
-666 -467 -964 -616 -120 -60 -278 -153 -351 -206 -35 -25 -63 -47 -62 -48 1
-1 52 11 112 27 722 189 1591 59 2385 -358 394 -207 869 -527 1112 -749 31
-28 87 -68 125 -89 131 -73 134 -78 144 -310 5 -99 17 -594 28 -1100 24 -1085
32 -1368 37 -1362 3 2 9 206 14 453 32 1490 55 2175 72 2209 21 41 55 68 125
100 40 19 94 53 120 78 115 106 372 295 610 450 691 450 1305 686 1948 748
136 13 525 7 645 -11 101 -15 362 -68 394 -80 89 -33 -83 87 -264 185 -470
255 -601 340 -1250 806 -553 397 -614 441 -684 496 -39 30 -105 81 -146 112
-187 145 -259 226 -451 509 -167 248 -160 234 -166 299 -7 74 -27 111 -107
203 -74 85 -91 124 -106 250 -13 111 -28 176 -51 221 -24 48 -46 56 -76 27
-37 -35 -53 -107 -53 -245 0 -82 -5 -135 -14 -156 -25 -61 -114 -116 -255
-160 -53 -16 -103 -21 -261 -24 -212 -5 -327 7 -434 48 -67 25 -165 89 -186
121 -10 16 -16 69 -21 173 -8 162 -18 209 -49 243 -26 28 -34 28 -60 0z"/>
</g>
</svg>
